<svg width="1200" height="630" viewBox="0 0 1200 630" fill="none" xmlns="http://www.w3.org/2000/svg" role="img" aria-labelledby="title desc">
  <title id="title">OpenPlan social preview</title>
  <desc id="desc">OpenPlan is Apache-2.0 planning software with optional managed hosting, support, and implementation services from Nat Ford Planning.</desc>
  <rect width="1200" height="630" fill="#07140f"/>
  <path d="M64 92C64 69.9 81.9 52 104 52h992c22.1 0 40 17.9 40 40v446c0 22.1-17.9 40-40 40H104c-22.1 0-40-17.9-40-40V92Z" fill="#0c1f18" stroke="#4e7d64" stroke-width="2"/>
  <path d="M139 461c103-88 181-114 296-86 103 25 164 11 253-64 94-79 182-111 373-98" stroke="#82c89d" stroke-width="8" stroke-linecap="round" opacity="0.72"/>
  <path d="M139 507c112-47 207-53 321-19 151 45 249 22 377-95 54-49 116-73 224-71" stroke="#d9b365" stroke-width="5" stroke-linecap="round" opacity="0.82"/>
  <text x="116" y="151" fill="#dff8e7" font-family="Inter, ui-sans-serif, system-ui, -apple-system, BlinkMacSystemFont, 'Segoe UI', sans-serif" font-size="34" font-weight="700" letter-spacing="4">OPENPLAN</text>
  <text x="116" y="250" fill="#f4fbf6" font-family="Inter, ui-sans-serif, system-ui, -apple-system, BlinkMacSystemFont, 'Segoe UI', sans-serif" font-size="58" font-weight="700">Open-source planning software</text>
  <text x="116" y="314" fill="#f4fbf6" font-family="Inter, ui-sans-serif, system-ui, -apple-system, BlinkMacSystemFont, 'Segoe UI', sans-serif" font-size="58" font-weight="700">with managed services.</text>
  <text x="116" y="390" fill="#b8cfbf" font-family="Inter, ui-sans-serif, system-ui, -apple-system, BlinkMacSystemFont, 'Segoe UI', sans-serif" font-size="28" font-weight="500">Apache-2.0 core · hosting · onboarding · support · implementation</text>
  <text x="116" y="540" fill="#d9b365" font-family="Inter, ui-sans-serif, system-ui, -apple-system, BlinkMacSystemFont, 'Segoe UI', sans-serif" font-size="24" font-weight="600">Nat Ford Planning</text>
</svg>
